<?xml version="1.0" encoding="UTF-8"?>
<svg width="144px" height="79px" viewBox="0 0 144 79" version="1.1" xmlns="http://www.w3.org/2000/svg" xmlns:xlink="http://www.w3.org/1999/xlink">
    <title>Logo</title>
    <g id="Icons/Logo" stroke="none" stroke-width="1" fill="none" fill-rule="evenodd">
        <g id="Artboard" transform="translate(-334.000000, -222.000000)" stroke-width="1.5">
            <g id="Logo" transform="translate(335.000000, 223.000000)">
                <g id="TV" stroke="#88060C">
                    <rect id="Rectangle" x="0" y="0" width="142" height="68" rx="1.5"></rect>
                    <line x1="36.5" y1="76.5" x2="107.5" y2="76.5" id="Line" stroke-linecap="round"></line>
                    <line x1="43.5" y1="73.5" x2="101.5" y2="73.5" id="Line" stroke-linecap="round"></line>
                </g>
                <g id="Graph" transform="translate(32.000000, 10.500000)">
                    <line x1="0.411764706" y1="25.15625" x2="27.5" y2="4" id="Line-2" stroke="#8C040C" stroke-linecap="round"></line>
                    <line x1="0" y1="45.5" x2="21" y2="30.5" id="Line-2" stroke="#E40713" stroke-linecap="round"></line>
                    <line x1="60" y1="41.5" x2="72" y2="31.5" id="Line-2" stroke="#8C040C" stroke-linecap="round"></line>
                    <line x1="72" y1="31.5" x2="79" y2="41.5" id="Line-2" stroke="#8C040C" stroke-linecap="round"></line>
                    <line x1="27.5" y1="4" x2="60" y2="41.5" id="Line-2" stroke="#8C040C" stroke-linecap="round"></line>
                    <line x1="21" y1="30.5" x2="32" y2="39.5" id="Line-2" stroke="#E40713" stroke-linecap="round"></line>
                    <line x1="72" y1="1.5" x2="79" y2="9.5" id="Line-2" stroke="#E40713" stroke-linecap="round"></line>
                    <line x1="72" y1="1.5" x2="32" y2="39.5" id="Line-2" stroke="#E40713" stroke-linecap="round"></line>
                    <circle id="Oval" stroke="#E40713" fill="#000000" cx="21" cy="30.5" r="1.5"></circle>
                    <circle id="Oval" stroke="#E40713" fill="#000000" cx="32" cy="39.5" r="1.5"></circle>
                    <circle id="Oval" stroke="#E40713" fill="#000000" cx="72" cy="1.5" r="1.5"></circle>
                    <circle id="Oval" stroke="#8C040C" fill="#000000" cx="27.5" cy="4" r="1.5"></circle>
                    <circle id="Oval" stroke="#8C040C" fill="#000000" cx="60" cy="41.5" r="1.5"></circle>
                    <circle id="Oval" stroke="#8C040C" fill="#000000" cx="72" cy="31.5" r="1.5"></circle>
                </g>
            </g>
        </g>
    </g>
</svg>